Coordinates
version=1
nRows=25
nColumns=28
inDegrees=yes

Units are S.I. units (second, meters, Newtons, ...)
Angles are in degrees.

endheader
time	pelvis_tilt	pelvis_list	pelvis_rotation	pelvis_tx	pelvis_ty	pelvis_tz	hip_flexion_r	hip_adduction_r	hip_rotation_r	knee_angle_r	ankle_angle_r	subtalar_angle_r	mtp_angle_r	hip_flexion_l	hip_adduction_l	hip_rotation_l	knee_angle_l	socket_flexion	socket_adduction	socket_rotation	socket_tx	socket_ty	socket_tz	foot_flex	lumbar_extension	lumbar_bending	lumbar_rotation
      0.00000000	     -1.43844991	    -10.00577005	    -11.76827975	     -0.88278976	      0.98286027	      0.32375098	    -22.23428853	     11.09817788	     13.69095764	     -7.56240482	      3.36958599	    -17.95528006	     19.74927330	     29.16237492	    -13.99608455	      9.70140749	    -10.56776021	     -2.84522647	      0.00000000	      0.00000000	      0.00000000	      0.00000000	      0.00000000	      2.39380632	    -11.16207359	      6.92495364	     18.24112820
      0.00416667	     -1.50066120	    -10.03750300	    -11.68806367	     -0.87762908	      0.98223083	      0.32329574	    -22.33852906	     11.11722255	     13.74356674	     -7.76692384	      3.32318836	    -17.95116723	     19.75416070	     29.04685375	    -13.91926963	      9.67065740	    -10.58978082	     -2.84568431	      0.00000000	      0.00000000	      0.00000000	      0.00000000	      0.00000000	      2.33131763	    -11.03476974	      6.97386885	     18.24381157
      0.00833333	     -1.55753960	    -10.08859680	    -11.74859665	     -0.87263906	      0.98173609	      0.32297152	    -22.24594506	     11.13895913	     13.68963260	     -8.37561953	      3.08164949	    -18.01578340	     19.75902174	     28.86411610	    -13.93162436	      9.57751109	    -10.54686820	     -2.86321302	      0.00000000	      0.00000000	      0.00000000	      0.00000000	      0.00000000	      1.92622299	    -11.02465581	      7.01914031	     18.22420068
      0.01250000	     -1.62419988	    -10.12023604	    -11.66414426	     -0.86703988	      0.98108477	      0.32248800	    -22.34865914	     11.15671095	     13.74299452	     -8.61087345	      3.03281630	    -18.01725951	     19.76410791	     28.73048313	    -13.84765597	      9.54682002	    -10.57702105	     -2.86794124	      0.00000000	      0.00000000	      0.00000000	      0.00000000	      0.00000000	      1.87761606	    -10.87792504	      7.07150804	     18.22794615
      0.01666667	     -1.69728632	    -10.14944217	    -11.74086519	     -0.86173244	      0.98057849	      0.32218752	    -22.18194974	     11.16509165	     13.66255784	     -9.35517917	      2.76386888	    -18.11856404	     19.76696289	     28.54262020	    -13.84480875	      9.45485852	    -10.55097356	     -2.89482342	      0.00000000	      0.00000000	      0.00000000	      0.00000000	      0.00000000	      1.48679762	    -10.85113497	      7.09130863	     18.21055189
      0.02083333	     -1.76785289	    -10.17746453	    -11.65805116	     -0.85585310	      0.97996240	      0.32167882	    -22.27073710	     11.17836039	     13.71673500	     -9.61783342	      2.70480049	    -18.12314156	     19.77245865	     28.39281873	    -13.75200844	      9.43381105	    -10.59013296	     -2.89877519	      0.00000000	      0.00000000	      0.00000000	      0.00000000	      0.00000000	      1.43172826	    -10.69130528	      7.14272353	     18.21469862
      0.02500000	     -1.86909716	    -10.18045687	    -11.74865682	     -0.85035973	      0.97946144	      0.32135871	    -22.01661705	     11.16328816	     13.58979868	    -10.46950318	      2.37701341	    -18.25420973	     19.78285860	     28.22294104	    -13.72744648	      9.34839986	    -10.58167587	     -2.92114924	      0.00000000	      0.00000000	      0.00000000	      0.00000000	      0.00000000	      1.04292542	    -10.62457942	      7.13114970	     18.19833205
      0.02916667	     -1.98297852	    -10.16546436	    -11.73654520	     -0.84447841	      0.97890263	      0.32093387	    -21.88718489	     11.15079387	     13.56351623	    -11.05575944	      2.16858380	    -18.32435243	     19.81487773	     28.07906281	    -13.63337010	      9.32270097	    -10.59679735	     -2.94679458	      0.00000000	      0.00000000	      0.00000000	      0.00000000	      0.00000000	      0.84892363	    -10.46950748	      7.12100311	     18.19919965
      0.03333333	     -2.43643471	    -10.07275671	    -11.81279287	     -0.83835492	      0.97790968	      0.32064551	    -21.30436466	     11.11683027	     13.34494069	    -11.81094519	      1.85426964	    -18.45604975	     20.39746593	     28.30001764	    -13.53861288	      9.27431429	    -10.65589287	     -2.94409809	      0.00000000	      0.00000000	      0.00000000	      0.00000000	      0.00000000	      0.63929826	     -9.85236367	      7.09206791	     18.26723076
      0.03750000	     -2.49282115	    -10.07808271	    -11.69838609	     -0.83215116	      0.97746645	      0.32004158	    -21.38380307	     11.11717600	     13.44830502	    -12.10773951	      1.77468809	    -18.44468620	     20.40086506	     28.11341155	    -13.40304709	      9.30811242	    -10.71940256	     -2.96012093	      0.00000000	      0.00000000	      0.00000000	      0.00000000	      0.00000000	      0.57878466	     -9.68307963	      7.14031458	     18.26021082
      0.04166667	     -2.53467723	    -10.00916393	    -11.69383840	     -0.82650145	      0.97714507	      0.31965584	    -21.17116150	     11.06294188	     13.44344913	    -12.93901986	      1.36397581	    -18.49465852	     20.37418053	     27.91841927	    -13.25588470	      9.43296584	    -10.82043120	     -3.03295760	      0.00000000	      0.00000000	      0.00000000	      0.00000000	      0.00000000	      0.21208054	     -9.67878703	      6.99421016	     18.15645423
      0.04583333	     -2.59921474	     -9.93340609	    -11.66980779	     -0.82052304	      0.97682951	      0.31917704	    -20.96051092	     10.98169427	     13.26751590	    -13.70870078	      0.95200522	    -18.58920539	     20.35678574	     27.74966758	    -13.08609940	      9.41051724	    -10.96051283	     -3.10755457	      0.00000000	      0.00000000	      0.00000000	      0.00000000	      0.00000000	     -0.02135442	     -9.55568902	      6.91607718	     18.05279716
      0.05000000	     -2.65492803	     -9.92428908	    -11.52727212	     -0.81408888	      0.97659203	      0.31851017	    -21.00921273	     10.97946737	     13.34945945	    -14.02937954	      0.85300734	    -18.58760431	     20.35834322	     27.54771134	    -12.92323681	      9.41990338	    -11.03945173	     -3.13070411	      0.00000000	      0.00000000	      0.00000000	      0.00000000	      0.00000000	     -0.06069912	     -9.35116846	      6.96260255	     18.04113610
      0.05416667	     -3.44893159	     -9.72848691	    -11.23498584	     -0.80801010	      0.97469238	      0.31726517	    -19.64445660	     10.98779725	     12.04961711	    -15.36409910	     -0.08890986	    -18.39529171	     22.62296413	     28.90131691	    -12.45028937	      9.88627840	    -12.93430344	     -4.23019282	      0.00000000	      0.00000000	      0.00000000	      0.00000000	      0.00000000	     -0.39386825	     -8.36223842	      6.98198569	     17.36416546
      0.05833333	     -3.46873469	     -9.63250262	    -11.13143371	     -0.80197345	      0.97460052	      0.31673788	    -19.55146430	     10.91589633	     12.17832125	    -15.96933835	     -0.37299647	    -18.39420462	     22.59469635	     28.68534482	    -12.23023129	     10.02092678	    -13.05950698	     -4.25979684	      0.00000000	      0.00000000	      0.00000000	      0.00000000	      0.00000000	     -0.52081388	     -8.27281838	      6.83413580	     17.29564927
      0.06250000	     -3.53609003	     -9.35735586	    -11.03137161	     -0.79568101	      0.97442123	      0.31615237	    -19.18550074	     10.63280940	     11.65864512	    -16.86980376	     -1.06105235	    -18.52506579	     22.58192446	     28.58902030	    -11.82205492	      9.86598437	    -13.40267897	     -4.44297816	      0.00000000	      0.00000000	      0.00000000	      0.00000000	      0.00000000	     -0.71148587	     -8.04930050	      6.54222275	     17.06023615
      0.06666667	     -3.99384490	     -9.21244751	    -10.66591578	     -0.78937869	      0.97332725	      0.31488453	    -18.39336022	     10.60687487	     10.85064089	    -17.80514483	     -1.57968678	    -18.09632661	     23.82229924	     29.31366900	    -11.37461647	     10.27492603	    -14.62591503	     -5.10255313	      0.00000000	      0.00000000	      0.00000000	      0.00000000	      0.00000000	     -0.90834232	     -7.38826282	      6.55883733	     16.42866798
      0.07083333	     -3.98514577	     -8.98642049	    -10.56893428	     -0.78321723	      0.97341269	      0.31430686	    -18.13770207	     10.37275606	     10.64528313	    -18.65942568	     -2.16360034	    -18.14937006	     23.81324934	     29.12813852	    -11.02272804	     10.18963625	    -14.96750893	     -5.26085382	      0.00000000	      0.00000000	      0.00000000	      0.00000000	      0.00000000	     -1.02881301	     -7.29035137	      6.27466367	     16.33060702
      0.07500000	     -4.01933507	     -8.70168805	    -10.39410032	     -0.77695196	      0.97339795	      0.31362254	    -17.79862627	     10.09534922	     10.27597829	    -19.54233689	     -2.79559324	    -18.14903310	     23.90107397	     29.04699309	    -10.57456953	     10.15141073	    -15.41112110	     -5.46426903	      0.00000000	      0.00000000	      0.00000000	      0.00000000	      0.00000000	     -1.15107851	     -7.10258906	      5.93742805	     16.12394838
      0.07916667	     -4.40705135	     -8.48669635	     -9.92536016	     -0.77061363	      0.97245924	      0.31218090	    -16.97789460	      9.96160993	      9.25853116	    -20.57680705	     -3.36461317	    -17.41884035	     25.49841161	     29.72154223	    -10.00408658	     10.56690826	    -16.65860846	     -6.09121089	      0.00000000	      0.00000000	      0.00000000	      0.00000000	      0.00000000	     -1.28187115	     -6.49234091	      5.84867181	     15.38727190
      0.08333333	     -4.37297370	     -8.20651228	     -9.82801295	     -0.76448370	      0.97273503	      0.31156331	    -16.65068406	      9.65162794	      9.02214358	    -21.54719806	     -4.08931209	    -17.45931815	     25.50133464	     29.52028697	     -9.60611741	     10.40602154	    -17.02787847	     -6.24447518	      0.00000000	      0.00000000	      0.00000000	      0.00000000	      0.00000000	     -1.39610533	     -6.42186066	      5.49997872	     15.27894756
      0.08750000	     -4.55087680	     -7.83233538	     -9.44788811	     -0.75804508	      0.97239478	      0.31045511	    -16.02726300	      9.29225430	      8.17415716	    -22.57597449	     -4.77986821	    -16.99292960	     26.61817261	     29.73495927	     -8.96308462	     10.54519964	    -17.72660499	     -6.54584570	      0.00000000	      0.00000000	      0.00000000	      0.00000000	      0.00000000	     -1.48821606	     -6.01323096	      5.12072918	     14.79046868
      0.09166667	     -4.65758916	     -7.48425381	     -9.17707323	     -0.75177807	      0.97229891	      0.30945198	    -15.43352161	      8.91052382	      7.48974909	    -23.68214522	     -5.60008651	    -16.54858641	     27.98390275	     29.81796086	     -8.40370518	     10.53997736	    -18.33571996	     -6.79389664	      0.00000000	      0.00000000	      0.00000000	      0.00000000	      0.00000000	     -1.57218956	     -5.73932474	      4.76019275	     14.40132583
      0.09583333	     -4.60863041	     -7.12314421	     -8.99420250	     -0.74556340	      0.97267240	      0.30876075	    -15.04886720	      8.51973995	      7.14564783	    -24.72412980	     -6.42606369	    -16.56172524	     27.99902145	     29.60987473	     -7.90259367	     10.38868084	    -18.68755479	     -6.91388303	      0.00000000	      0.00000000	      0.00000000	      0.00000000	      0.00000000	     -1.63217817	     -5.66156684	      4.30946322	     14.22133521
      0.10000000	     -4.56725953	     -6.76212576	     -8.77671144	     -0.73938008	      0.97302778	      0.30796989	    -14.60212045	      8.12013985	      6.68427139	    -25.84681302	     -7.25325389	    -16.46328159	     28.08435636	     29.41579638	     -7.38281527	     10.26630127	    -18.99900895	     -6.98131151	      0.00000000	      0.00000000	      0.00000000	      0.00000000	      0.00000000	     -1.68554722	     -5.57530556	      3.86953007	     13.95704032
